PathFileType	4	(X/Y/Z)	Patient3_R_AnkleIso_Processed.trc
DataRate	CameraRate	NumFrames	NumMarkers	Units	OrigDataRate	OrigDataStartFrame	OrigNumFrames
100.000000000000	100.000000000000	4	33	mm	100.000000000000	1	       301
Frame#	Time	L.Toe			R.Toe			R.Shoulder			L.Heel			Neck			R.Heel			L.Shank.Lateral			R.Shank.Lateral			L.Midfoot.Superior			L.Elbow			R.Midfoot.Lateral			R.Midfoot.Superior			L.Shoulder			R.Thigh.Lateral			R.Elbow			Sacral			L.Thigh.Superior			R.Patella			R.Wrist			R.Shank.Superior			L.Wrist			R.Shank.Inferior			R.Thigh.Superior			R.Thigh.Inferior			L.Asis			L.Shank.Inferior			L.Midfoot.Lateral			Sternum			L.Shank.Superior			R.Asis			L.Patella			L.Thigh.Lateral			L.Thigh.Inferior			
		X1	Y1	Z1	X2	Y2	Z2	X3	Y3	Z3	X4	Y4	Z4	X5	Y5	Z5	X6	Y6	Z6	X7	Y7	Z7	X8	Y8	Z8	X9	Y9	Z9	X10	Y10	Z10	X11	Y11	Z11	X12	Y12	Z12	X13	Y13	Z13	X14	Y14	Z14	X15	Y15	Z15	X16	Y16	Z16	X17	Y17	Z17	X18	Y18	Z18	X19	Y19	Z19	X20	Y20	Z20	X21	Y21	Z21	X22	Y22	Z22	X23	Y23	Z23	X24	Y24	Z24	X25	Y25	Z25	X26	Y26	Z26	X27	Y27	Z27	X28	Y28	Z28	X29	Y29	Z29	X30	Y30	Z30	X31	Y31	Z31	X32	Y32	Z32	X33	Y33	Z33	

1	0.500000000000	705.271727243342	42.896706857271	376.764796447459	1086.279564280072	112.830327765821	641.019558868013	464.963575158639	1447.072961543873	503.315486374912	414.718037544286	33.254168428460	427.115348929690	434.744772142682	1465.733905335528	354.573963010854	788.955357163502	139.000982257333	640.539185784762	479.354832175633	324.675765284550	292.302808770489	735.228465965131	421.155987335822	676.681057885209	585.677792408170	90.022428191091	390.247193994480	371.577118631694	1112.830788631727	93.610976308400	878.157566626352	130.215516647749	695.988164484512	966.940307249302	176.058315075578	638.590678606892	481.429264972677	1427.318263147886	213.142002095707	632.656782215270	720.322334565295	625.147180209492	548.692239358182	1140.493207530604	651.648395885600	416.022758105289	969.923045257729	375.726590432058	662.007369926326	736.754638875431	298.372843650994	773.174400049875	592.156357122832	579.229816086195	646.485043361896	1267.648534100869	459.262452561486	792.516492765558	487.523126773211	617.319830323099	544.958921338661	998.090927152659	-59.588588072221	855.680304745605	323.084403240763	636.933645284364	690.182236106942	790.826471112816	557.738192866172	729.392503450217	685.024919835547	563.367445515116	614.655943795187	966.387836848595	272.809918855757	548.863838926090	229.928135546000	363.150633247943	490.361813701531	27.258183087645	359.426837073949	575.622718149750	1375.012317477037	372.414506802894	571.970796351849	381.617323869742	330.528655968781	558.170336338373	993.106910813007	528.387221293586	615.931741580303	489.881588478658	341.401445994052	562.840702876526	656.432429423477	253.605749647942	641.408632787896	607.537394633920	319.203075490435	
2	0.510000000000	705.285809525652	42.867934048854	376.763856684936	1086.358739958274	112.804596059667	641.116284985544	465.213875038227	1447.055941432293	503.419569325513	414.721209659783	33.258092246805	427.114097526065	434.999160863315	1465.746206235857	354.686155508837	789.038336543635	138.989547366952	640.599761970488	479.529528214341	324.676273358193	292.316105513582	735.300845513485	421.138325436506	676.747672782671	585.687729403847	90.017439696508	390.252731546086	371.694966566833	1112.923115643167	93.675639876134	878.230050121200	130.197267555846	696.063890555073	967.025885944836	176.041605124606	638.677434712790	481.690343606315	1427.341987668839	213.246646061126	632.734806355039	720.297762464342	625.217169360126	548.815295526767	1140.438166386820	651.725202906354	416.150460577172	969.928805089527	375.774001833441	662.160941837089	736.750513893240	298.489024078744	773.268969622486	592.144727799508	579.312830960576	646.671045339163	1267.589918306950	459.364230882648	792.603715236000	487.508195800452	617.400857286936	545.041519289208	998.165222163829	-59.550033830526	855.763477399649	323.068233083656	637.018782162555	690.273026366239	790.816021828527	557.825203974304	729.488181305591	685.014845292780	563.452980040703	614.806217352795	966.381499836979	272.895648181803	548.951563764840	229.924732438361	363.222189064494	490.365893461594	27.261848939611	359.425935556956	575.848507633661	1374.984989014581	372.520421114008	572.110140287812	381.610619306410	330.627797070667	558.275893828941	993.083556446182	528.465438923714	616.068228201906	489.863564718964	341.516831344515	563.009799629462	656.420305599589	253.689314524745	641.570766585825	607.528569940469	319.317643138970	
3	0.520000000000	705.299327424299	42.840393612747	376.763904250153	1086.425621453323	112.773198626077	641.214253075238	465.463635946983	1447.038970906131	503.522172514930	414.724372755759	33.262148092509	427.112560436234	435.254592125747	1465.760058557956	354.796730692656	789.109480702139	138.978629614166	640.668618917740	479.698060376983	324.679249403753	292.326250369491	735.366716952086	421.123142301697	676.818295478907	585.698029726735	90.012988098467	390.257870665566	371.815739547269	1113.018103371312	93.733855083073	878.291542640157	130.177828083396	696.145970990570	967.100254646797	176.021717612995	638.768781997964	481.954611750263	1427.365892342287	213.349751833065	632.812553783325	720.275427394527	625.286302179569	548.925314531385	1140.382062585261	651.800513812744	416.271880874632	969.933853162051	375.819756821103	662.308309048987	736.748556528645	298.592667285490	773.359526360615	592.132483469155	579.396059731604	646.851295848270	1267.527444361851	459.467656835683	792.685541444789	487.492813052525	617.483074169822	545.124183709389	998.231426317970	-59.512819057942	855.838044661621	323.050851264660	637.108380778217	690.360545898708	790.805290871886	557.909243003224	729.579794113679	685.004500681905	563.537475800318	614.947355493297	966.377015774034	272.976607269641	549.036626269203	229.920737307857	363.287423695184	490.369971966815	27.265176542493	359.425116216077	576.073106025485	1374.956364309955	372.626017024679	572.247171980649	381.602994154501	330.718793430905	558.378420881678	993.061144304280	528.540689034499	616.206860016527	489.846269311465	341.621755491553	563.170985782701	656.409493608028	253.767908228748	641.731319903058	607.521640710098	319.419190478143	
4	0.530000000000	705.312251514713	42.813900333851	376.764804000617	1086.479885943751	112.735917788308	641.312952448503	465.712415581492	1447.022152356711	503.623168059809	414.727554001495	33.266315584166	427.110824646597	435.510458292397	1465.775387106483	354.905489800910	789.168429429184	138.968103990010	640.746021297338	479.859967452359	324.684228770592	292.333978152355	735.426499941079	421.110573081524	676.893100654781	585.708674180197	90.008990265444	390.262681327002	371.939663620933	1113.114725521427	93.786117418348	878.341941482081	130.157008696780	696.234230089724	967.163115107721	175.998367308410	638.864429492354	482.221212263371	1427.389724221588	213.451126257188	632.890441204452	720.255621120200	625.354516527138	549.023268196487	1140.325498196622	651.874421814779	416.387210345818	969.938104598746	375.864134849467	662.449158230022	736.748493156542	298.684501060410	773.446308232201	592.119593906814	579.479289262572	647.025778117057	1267.461466696534	459.572459111946	792.762225454247	487.476952956945	617.566226556923	545.207383853299	998.289075841565	-59.476591208003	855.904044083308	323.032125406103	637.202122218316	690.445096650576	790.794368579716	557.989861886035	729.667590457906	684.993881318846	563.620603747835	615.079375564742	966.374217702849	273.052741941138	549.118876674384	229.916049512034	363.346854368584	490.374018260116	27.268180246071	359.424427239959	576.296089878894	1374.926444052249	372.731081784471	572.381424239937	381.594663540552	330.802030657874	558.478141714621	993.039748382459	528.612967112490	616.346498071139	489.829723268667	341.716671712788	563.323895957512	656.399976546840	253.841662437837	641.889189147805	607.516508168026	319.508554621259	
